<?xml version="1.0" encoding="UTF-8" standalone="no"?>
<!-- Created with Inkscape (http://www.inkscape.org/) -->

<svg
   width="157.16373mm"
   height="156.85457mm"
   viewBox="0 0 157.16373 156.85457"
   version="1.1"
   id="svg1"
   xml:space="preserve"
   xmlns="http://www.w3.org/2000/svg"
   xmlns:svg="http://www.w3.org/2000/svg"><defs
     id="defs1" /><g
     id="layer1"
     transform="translate(-25.876817,-68.904092)"><path
       style="fill:#000000"
       d="m 96.532367,225.57332 c -0.81756,-0.29572 -2.30417,-1.02146 -4.02666,-1.96577 -1.41757,-0.77714 -2.00717,-0.95777 -2.91042,-0.89162 -1.4819,0.10853 -1.47283,0.10441 -0.92871,0.42119 1.4119,0.82197 -1.51297,1.05701 -3.64358,0.2928 -0.72761,-0.26098 -1.32292,-0.61769 -1.32292,-0.79268 0,-0.32502 -0.25169,-0.35728 -0.8866,-0.11365 -0.19658,0.0754 -0.43838,0.006 -0.53732,-0.1539 -0.0989,-0.16008 -0.41434,-0.28307 -0.7009,-0.2733 -0.77182,0.0263 -4.22634,-1.03338 -6.34184,-1.94538 -3.7646,-1.62293 -11.82173,-5.65273 -12.2538,-6.12878 -0.24541,-0.27039 -0.98199,-0.77387 -1.63683,-1.11885 -0.65484,-0.34499 -1.62503,-0.9572 -2.15597,-1.36047 -0.53094,-0.40327 -1.46464,-1.09041 -2.07488,-1.52697 -0.61025,-0.43657 -1.54506,-1.15639 -2.07736,-1.59961 -0.53231,-0.44322 -1.26874,-0.99414 -1.63652,-1.22427 -0.36779,-0.23013 -1.01304,-0.96318 -1.43391,-1.62901 -0.42791,-0.67697 -1.00219,-1.24528 -1.30281,-1.28928 -0.34356,-0.0503 -0.89666,-0.69938 -1.53245,-1.79846 -0.73665,-1.27341 -1.12434,-1.70009 -1.49373,-1.64387 -0.27437,0.0418 -0.65073,-0.10708 -0.83634,-0.33073 -0.27364,-0.32971 -0.27354,-0.40665 5e-4,-0.40665 0.2265,0 0.17891,-0.17578 -0.14429,-0.5329 -0.27997,-0.30937 -0.67195,-0.47271 -0.93445,-0.3894 -0.30288,0.0961 -0.70318,-0.16665 -1.21238,-0.79589 -0.41811,-0.51668 -1.13826,-1.38784 -1.60034,-1.93591 -1.01224,-1.20064 -2.73174,-3.72663 -2.73174,-4.01301 0,-0.11307 -0.17585,-0.35154 -0.39079,-0.52993 -0.21494,-0.17838 -0.71064,-0.97807 -1.10156,-1.77708 -0.39092,-0.79901 -0.86214,-1.51083 -1.04716,-1.58183 -0.47089,-0.1807 -2.18013,-3.1074 -3.91309,-6.7003 -2.11336,-4.38157 -3.95715,-9.21601 -5.04541,-13.22916 -0.0987,-0.36381 -0.30033,-1.07818 -0.44816,-1.5875 -0.14783,-0.50933 -0.38173,-1.52136 -0.51979,-2.24896 -0.13805,-0.72761 -0.36852,-1.91823 -0.51214,-2.64584 -0.46722,-2.36697 -0.80818,-5.22007 -1.07505,-8.99583 -0.33385,-4.7235 -0.32976,-6.51784 0.0224,-9.78958 0.15661,-1.45521 0.39492,-3.95552 0.52958,-5.55625 0.23511,-2.79489 0.50534,-4.94459 1.01443,-8.06979 0.25744,-1.5804 1.46396,-5.79337 1.88375,-6.57776 0.14317,-0.26751 0.69374,-1.78421 1.22349,-3.37045 0.52976,-1.58625 1.05386,-3.00315 1.16469,-3.14867 0.11082,-0.14552 0.51691,-1.09802 0.90242,-2.11666 0.3855,-1.01865 1.08718,-2.49175 1.55929,-3.27355 0.4721,-0.78181 1.09649,-1.85713 1.38753,-2.3896 0.50308,-0.92041 1.52023,-2.58705 3.00276,-4.92018 0.36987,-0.58209 0.99906,-1.41552 1.39819,-1.85209 0.39913,-0.43656 1.23907,-1.5313 1.86654,-2.432766 2.01711,-2.897923 3.3869,-4.565261 4.12485,-5.020858 1.02074,-0.630186 3.2337,-2.786446 3.2337,-3.150844 0,-0.368988 4.32742,-4.677042 5.43274,-5.408431 0.43173,-0.285678 1.32075,-0.932928 1.9756,-1.438333 1.20862,-0.932809 5.3463,-3.744525 7.27604,-4.944358 0.58208,-0.361915 3.12572,-1.691979 5.65253,-2.955696 4.11878,-2.0599 4.74626,-2.297668 6.06367,-2.297668 1.23325,0 1.81438,-0.18649 3.61512,-1.160133 2.84292,-1.537138 4.22981,-2.0029 8.41503,-2.826026 0.69122,-0.135946 1.88185,-0.369966 2.64583,-0.520045 2.72952,-0.536192 5.95383,-0.834439 10.305863,-0.953285 4.12483,-0.112641 4.49271,-0.08301 5.52837,0.445348 0.98888,0.504491 1.37137,0.546829 3.51862,0.389486 3.64827,-0.267332 6.49645,-0.237765 7.96539,0.08269 0.7276,0.15873 1.73963,0.358349 2.24895,0.443597 0.9278,0.155291 2.08292,0.403557 4.43177,0.952505 1.65387,0.386523 5.84256,1.79524 6.68073,2.246828 0.3638,0.196008 1.33715,0.543863 2.163,0.773012 0.82584,0.22915 1.89741,0.704483 2.38125,1.056297 0.48384,0.351814 1.14139,0.831831 1.46122,1.066705 0.31983,0.234874 0.73655,0.458332 0.92604,0.496574 2.50479,0.505493 8.08017,3.469878 12.11849,6.443294 0.65485,0.482162 1.71134,1.258229 2.34777,1.724594 1.16559,0.85413 4.59527,3.881968 7.04494,6.219518 1.26524,1.207329 3.17405,3.462048 3.17586,3.751389 8.3e-4,0.130949 0.63174,1.044153 1.92292,2.783278 0.32412,0.436563 1.13117,1.600248 1.79345,2.585968 0.66228,0.98572 1.59729,2.04993 2.0778,2.36492 0.48052,0.31498 1.27821,1.20887 1.77265,1.98641 0.49444,0.77754 1.16954,1.83589 1.50021,2.35189 0.93078,1.45245 1.79345,3.26961 2.31007,4.86602 0.25901,0.80037 1.09407,2.70537 1.85568,4.23334 0.76161,1.52797 1.70604,3.61156 2.09873,4.63021 0.3927,1.01864 1.01521,2.54934 1.38336,3.40154 0.45497,1.05314 0.61913,1.8007 0.51251,2.3338 -0.0895,0.4477 -0.003,1.08862 0.20102,1.49325 0.19684,0.3899 0.37741,1.40084 0.40126,2.24653 0.0239,0.8457 0.27818,2.15539 0.56515,2.91042 0.28697,0.75503 0.52183,1.64807 0.5219,1.98453 8e-5,0.33646 0.19792,1.21644 0.43966,1.9555 0.36492,1.1157 0.39796,1.74545 0.19464,3.71065 -0.13468,1.3018 -0.16967,2.41339 -0.0777,2.4702 0.50337,0.3111 0.86661,6.3895 0.43244,7.23635 -0.26089,0.50887 -0.26021,0.66117 0.003,0.74965 0.39363,0.13217 0.43089,1.27327 0.0765,2.34257 -0.13983,0.4219 -0.29955,1.12428 -0.35493,1.56084 -0.0554,0.43656 -0.16782,0.97234 -0.24986,1.19062 -0.71298,1.89703 -0.99306,3.44186 -0.99306,5.47741 0,1.6763 -0.14932,2.7438 -0.52917,3.78301 -0.29104,0.79626 -0.52916,1.75451 -0.52916,2.12944 0,0.37494 -0.35159,1.68631 -0.78132,2.91416 -2.43965,6.9708 -3.48182,9.28848 -4.86515,10.81967 -0.93973,1.04016 -2.03778,2.96604 -2.42035,4.24506 -0.10882,0.3638 -0.34468,0.84005 -0.52413,1.05834 -0.17945,0.21828 -0.60991,0.93265 -0.95659,1.5875 -0.34667,0.65484 -1.32754,2.07416 -2.17971,3.15405 -0.85216,1.07988 -1.66139,2.27051 -1.79829,2.64583 -0.1369,0.37532 -0.72885,1.10006 -1.31545,1.61053 -0.63438,0.55204 -1.09683,1.20404 -1.14129,1.60907 -0.0845,0.76957 -1.95472,3.4269 -2.85634,4.05841 -0.32654,0.22872 -0.9244,0.41586 -1.32859,0.41586 -0.61257,0 -0.73487,0.11302 -0.73487,0.67911 0,1.20723 -1.8083,3.05762 -2.73983,2.80361 -0.35892,-0.0979 -0.97487,0.51952 -0.80023,0.80209 0.33553,0.5429 -3.93721,4.13808 -6.11724,5.14718 -0.58208,0.26943 -1.15145,0.63497 -1.26526,0.8123 -0.12801,0.19945 -0.50642,0.26251 -0.99219,0.16536 -0.49835,-0.0997 -0.78525,-0.0483 -0.78525,0.14061 0,0.16371 0.13981,0.29765 0.3107,0.29765 0.49862,0 -0.71948,1.14384 -1.8175,1.70669 -0.55371,0.28383 -1.19205,0.66838 -1.41854,0.85454 -0.69677,0.57272 -3.73107,1.4376 -4.06662,1.15913 -0.47978,-0.39819 -1.02738,0.10291 -0.82145,0.75171 0.1583,0.49876 -0.0269,0.66479 -1.49305,1.33853 -1.54827,0.71147 -1.69977,0.73573 -2.02084,0.32354 -0.32464,-0.41678 -0.36931,-0.41565 -0.69063,0.0174 -0.18894,0.25467 -0.59127,0.46302 -0.89406,0.46302 -0.3028,0 -0.62412,0.11907 -0.71406,0.26459 -0.0899,0.14552 -0.60297,0.26621 -1.14009,0.26819 -1.54043,0.006 -2.2035,0.25893 -2.03858,0.77855 0.17949,0.56553 -0.54041,1.23606 -1.58383,1.47521 -0.43656,0.10006 -1.32953,0.3564 -1.98437,0.56963 -0.65484,0.21324 -1.72641,0.50366 -2.38125,0.64537 -0.65484,0.14172 -1.66688,0.37998 -2.24896,0.52948 -3.71326,0.95366 -11.48838,1.78561 -16.8738,1.80551 l -3.64464,0.0135 -0.15875,-0.79375 c -0.10774,-0.5387 -0.31603,-0.79375 -0.64823,-0.79375 -0.402753,0 -0.461353,0.14064 -0.330733,0.79375 l 0.158753,0.79375 -1.554423,-0.0209 c -0.85494,-0.0115 -1.73302,-0.0855 -1.95131,-0.16444 z m -8.56252,-2.37997 c -0.10122,-0.10123 -0.32943,-0.20777 -0.50711,-0.23677 -0.17769,-0.029 -0.44214,-0.0793 -0.58766,-0.11187 -0.70707,-0.15807 -0.95442,0.0926 -0.26458,0.2681 1.0716,0.27268 1.58172,0.3029 1.35935,0.0805 z m -2.81456,-0.98494 c 0,-0.20638 0.0723,-0.56357 0.1606,-0.79375 0.11559,-0.30122 0.002,-0.41852 -0.40518,-0.41852 -0.61776,0 -0.95829,0.56464 -0.71807,1.19063 0.19335,0.50388 0.96265,0.52117 0.96265,0.0216 z m -8.05891,-2.2882 c 0.21111,-0.34158 0.16004,-0.39323 -0.6289,-0.63603 -0.56286,-0.17322 -0.59155,-0.14073 -0.32142,0.36401 0.32522,0.60768 0.68009,0.70926 0.95032,0.27202 z m 65.095943,-5.41204 c -0.54374,-0.41136 -0.84758,-0.34598 -0.55937,0.12037 0.0959,0.1552 0.37574,0.2784 0.62181,0.27377 0.39281,-0.007 0.3852,-0.0555 -0.0624,-0.39414 z m -32.24208,-0.68743 c 1.30793,-0.3323 2.64714,-0.50479 3.36386,-0.43326 0.65495,0.0654 1.13697,0.0317 1.07117,-0.0747 -0.1851,-0.2995 1.29104,-0.50347 1.62794,-0.22494 0.18572,0.15353 0.56722,0.14466 1.00942,-0.0235 0.39097,-0.14865 1.05327,-0.27027 1.47177,-0.27027 0.4185,0 0.83928,-0.1268 0.93506,-0.28177 0.0958,-0.15497 0.48976,-0.26142 0.87551,-0.23655 1.28579,0.0829 1.5953,-0.006 2.30609,-0.6651 0.53751,-0.49815 0.81858,-0.59397 1.17798,-0.40163 0.31995,0.17123 0.80018,0.1323 1.4905,-0.12085 0.67177,-0.24635 0.83833,-0.38619 0.48929,-0.41081 -0.37016,-0.0261 -0.21082,-0.17916 0.53027,-0.50934 1.86082,-0.82904 2.26755,-0.90811 2.07378,-0.40318 -0.14191,0.36983 -0.0853,0.39923 0.33536,0.1741 0.27835,-0.14897 0.73158,-0.52001 1.00717,-0.82453 0.32188,-0.35568 0.82377,-0.55367 1.40349,-0.55367 1.07549,0 1.70389,-0.30379 3.1166,-1.50667 1.80904,-1.54035 1.75507,-1.51019 1.99839,-1.11649 0.17832,0.28854 0.34749,0.2431 0.849,-0.22805 0.34446,-0.3236 0.76907,-0.58837 0.94357,-0.58837 0.43629,0 1.45528,-0.59046 1.71229,-0.99219 0.11637,-0.1819 0.38505,-0.33073 0.59706,-0.33073 0.21202,0 0.64076,-0.2936 0.95277,-0.65244 0.312,-0.35883 0.66819,-0.59006 0.79153,-0.51383 0.33945,0.20979 1.15761,-0.44745 3.98435,-3.2007 1.41859,-1.38171 2.79708,-2.5122 3.06331,-2.5122 0.55757,0 5.28221,-4.74586 7.63861,-7.67291 2.47039,-3.06865 4.12332,-5.59852 3.84181,-5.88003 -0.25375,-0.25374 0.37563,-1.43639 2.78462,-5.23247 0.69261,-1.09141 1.41544,-2.57886 1.60629,-3.30545 0.19086,-0.72659 0.69923,-1.94518 1.12973,-2.70797 0.45824,-0.81198 0.78271,-1.7748 0.78271,-2.32262 0,-0.74 0.13761,-0.99843 0.65791,-1.23549 0.51988,-0.23687 0.79742,-0.75717 1.32292,-2.47998 0.78262,-2.56582 0.77562,-2.50058 0.26813,-2.50058 -0.52105,0 -0.51324,-0.7657 0.01,-0.96643 0.89603,-0.34384 1.58909,-3.2669 0.77458,-3.2669 -0.32352,0 -0.34883,-0.10716 -0.12439,-0.52653 0.15498,-0.2896 0.42186,-0.49796 0.59306,-0.46302 0.47254,0.0964 1.1443,-5.73757 0.80666,-7.00559 -0.14405,-0.54102 -0.16042,-0.92095 -0.0364,-0.84428 0.12406,0.0767 0.22556,-0.0452 0.22556,-0.27085 0,-0.22563 -0.23813,-0.55896 -0.52917,-0.74072 -0.62638,-0.39118 -0.68801,-0.73234 -0.13229,-0.73234 0.21828,0 0.39687,0.11906 0.39687,0.26458 0,0.14552 0.11907,0.26458 0.26459,0.26458 0.35697,0 0.33677,-3.03281 -0.0352,-5.28519 -0.23791,-1.4406 -0.40749,-1.84341 -0.82163,-1.95171 -0.63713,-0.16662 -0.48545,-0.80422 0.21609,-0.90837 0.44431,-0.066 0.4969,-0.2599 0.41687,-1.53757 -0.0803,-1.28165 -0.17437,-1.49357 -0.76252,-1.71718 -0.63399,-0.24104 -0.64653,-0.28208 -0.22773,-0.74485 0.362,-0.40001 0.37614,-0.51548 0.0771,-0.63022 -0.23918,-0.0918 -0.32564,-0.41594 -0.24943,-0.9352 0.0894,-0.60902 -0.0132,-0.86422 -0.4391,-1.09215 -0.65659,-0.3514 -0.81242,-1.75683 -0.16734,-1.50929 0.21362,0.082 0.45526,0.0409 0.53698,-0.0914 0.36253,-0.58659 -2.1791,-8.87001 -3.91006,-12.74327 -1.49971,-3.35582 -2.94479,-5.98492 -3.22953,-5.87566 -0.16581,0.0636 -0.52077,-0.12664 -0.78881,-0.42281 -0.4329,-0.47835 -0.43875,-0.5385 -0.0524,-0.5385 0.36027,0 0.28783,-0.29548 -0.42202,-1.72142 l -0.85694,-1.72143 -1.12448,0.16397 c -1.24634,0.18173 -1.52647,-0.19752 -0.52916,-0.71639 0.32742,-0.17036 0.63932,-0.34754 0.69312,-0.39375 0.24766,-0.21275 -1.94779,-2.78991 -2.82204,-3.31268 -0.53897,-0.32229 -1.2224,-0.80171 -1.51874,-1.06538 -0.45646,-0.40614 -1.12325,-0.64733 -2.04088,-0.73825 -0.10914,-0.0108 -0.19844,-0.24505 -0.19844,-0.52052 0,-0.27548 -0.17859,-0.5694 -0.39688,-0.65316 -0.63225,-0.24262 -0.45962,-0.69807 0.26459,-0.69807 1.03602,0 0.796,-0.58486 -0.9064,-2.208682 -1.45339,-1.386294 -2.13247,-1.866843 -1.73944,-1.2309 0.0899,0.145521 -0.0301,0.264584 -0.26679,0.264584 -0.30927,0 -0.38329,-0.14819 -0.26312,-0.526799 0.21353,-0.6728 -0.10618,-1.26526 -0.41401,-0.767185 -0.15801,0.255672 -0.28996,0.156315 -0.48954,-0.368627 -0.15028,-0.395252 -0.39555,-0.718639 -0.54505,-0.718639 -0.1495,0 -0.69751,-0.47119 -1.2178,-1.047089 -1.88208,-2.083236 -11.00882,-8.213327 -12.22835,-8.213327 -0.2812,0 -0.80936,-0.234479 -1.17369,-0.521063 -0.36433,-0.286585 -2.60597,-1.305208 -4.98141,-2.263608 -3.6484,-1.47199 -4.4754,-1.71612 -5.32638,-1.572348 -0.79585,0.134457 -1.0074,0.0866 -1.0074,-0.227885 0,-0.654735 -1.28744,-0.921675 -2.47383,-0.512929 -1.23343,0.424953 -1.7595,0.290375 -1.7595,-0.450113 0,-0.301363 -0.17434,-0.537471 -0.39687,-0.537471 -0.21829,0 -0.39688,0.178594 -0.39688,0.396875 0,0.445308 -0.0485,0.463203 -0.63982,0.236276 -0.23018,-0.08833 -0.41851,-0.366654 -0.41851,-0.618499 0,-0.38986 -0.5521,-0.528469 -3.71556,-0.932824 -3.44652,-0.440536 -5.47932,-0.432316 -7.31974,0.0296 -0.42418,0.106462 -0.60637,0.03642 -0.60637,-0.23311 0,-0.319143 -0.46564,-0.367185 -2.71198,-0.279804 -9.268733,0.360546 -17.843613,2.343993 -25.607263,5.923187 -3.06226,1.411762 -8.45785,4.423949 -8.45785,4.721753 0,0.119541 -0.3805,0.374958 -0.84557,0.567594 -0.46506,0.192636 -1.63252,1.092616 -2.59435,1.999955 -0.96182,0.90734 -2.23852,1.925033 -2.8371,2.26154 -2.62235,1.474224 -7.69941,6.417478 -10.95472,10.665998 -1.79524,2.34298 -3.90021,5.66908 -5.9004,9.32333 -0.97476,1.78085 -1.99724,3.39547 -2.27217,3.58803 -0.37052,0.25953 -0.54682,0.82521 -0.68132,2.18605 -0.21155,2.14061 -0.80482,3.46897 -1.99751,4.47255 -0.76945,0.64745 -0.8267,0.79187 -0.57657,1.45453 0.40171,1.06426 0.0522,4.40811 -0.50535,4.83434 -0.28236,0.21588 -0.63112,1.34857 -0.98121,3.18677 -0.29872,1.56853 -0.71445,3.11634 -0.92384,3.43959 -0.3226,0.49802 -0.34762,1.83955 -0.16393,8.78981 0.18601,7.03836 0.29171,8.44608 0.74494,9.92187 0.29049,0.94589 0.65633,1.69172 0.81298,1.65741 0.3646,-0.0799 0.69316,1.63108 0.43077,2.2432 -0.27972,0.65254 -0.16621,1.72896 0.4341,4.11643 1.05425,4.1929 4.29202,12.19473 5.45374,13.47842 0.24316,0.26869 0.47639,0.71311 0.51827,0.98759 0.11305,0.74076 1.28258,2.36203 2.68358,3.72014 1.14502,1.10997 2.79231,3.4746 2.85034,4.0916 0.0819,0.8706 0.9454,2.07361 3.55995,4.95962 3.41136,3.76554 5.40494,5.66307 7.28323,6.93232 0.73869,0.49917 1.51084,1.10974 1.71591,1.35682 0.56622,0.68226 2.2884,1.7002 2.87644,1.7002 0.81063,0 1.9041,0.58731 1.76557,0.94831 -0.22122,0.57648 0.84984,1.303 2.0886,1.41675 0.14552,0.0134 0.0883,0.13574 -0.12708,0.27195 -0.29208,0.18469 -0.10161,0.29405 0.74909,0.43008 0.65312,0.10444 1.00639,0.26545 0.82644,0.37667 -0.41889,0.25889 0.0935,0.57661 0.6102,0.37835 0.21263,-0.0816 0.45624,0.0331 0.54135,0.25489 0.35126,0.91539 8.19026,4.26114 13.275,5.66587 4.49246,1.24111 5.97555,1.4937 6.25222,1.06482 0.15142,-0.23472 0.29791,-0.26317 0.42851,-0.0832 0.10914,0.15039 0.49609,0.2891 0.85989,0.30825 3.72894,0.19628 6.31037,0.46488 6.746883,0.70201 1.37429,0.74658 6.68111,0.67935 9.84599,-0.12473 z m -10.243653,-6.03422 c -4.2e-4,-0.0835 -0.44029,-0.16173 -0.97747,-0.17383 -0.53718,-0.0121 -1.023,-0.16092 -1.0796,-0.33073 -0.12984,-0.38952 -1.4448,-0.40441 -1.8285,-0.0207 -0.20763,0.20763 -0.90544,0.16566 -2.50031,-0.15037 -2.89406,-0.57349 -6.38829,-1.47918 -6.664,-1.72727 -0.12011,-0.10808 0.20632,-1.03984 0.7254,-2.07059 1.61636,-3.20967 2.61167,-7.69857 2.56168,-11.55333 -0.0705,-5.43275 -0.25341,-8.63224 -0.5114,-8.9431 -0.15077,-0.18166 -0.47258,-0.92269 -0.71514,-1.64672 -0.806,-2.40591 -2.74016,-6.05747 -4.10274,-7.74571 -2.58264,-3.19988 -8.8272,-7.09356 -14.74301,-9.19272 -1.3342,-0.47343 -2.14061,-0.89671 -2.06814,-1.08556 0.0653,-0.17025 -0.15988,-0.37948 -0.50048,-0.46497 -0.34059,-0.0855 -0.80892,-0.2282 -1.04072,-0.31715 -0.2778,-0.1066 -0.42145,-0.0168 -0.42145,0.26345 0,0.54667 -0.89194,0.55379 -1.43428,0.0114 -0.24676,-0.24676 -0.54804,-0.3272 -0.74651,-0.19932 -0.18301,0.11793 -2.59494,0.22223 -5.35984,0.23179 -5.1307,0.0177 -6.99573,0.24017 -10.27342,1.22533 -1.0179,0.30595 -1.9027,0.4424 -2.0265,0.31252 -0.46612,-0.48901 -1.02267,-2.94169 -0.7332,-3.23115 0.19975,-0.19976 0.15729,-0.61396 -0.14544,-1.41887 -1.75604,-4.66902 -2.17607,-16.28769 -0.81585,-22.56801 0.22063,-1.01865 0.46632,-2.23904 0.54599,-2.71198 0.10827,-0.64268 0.28157,-0.8599 0.68609,-0.8599 0.50757,0 0.51399,-0.0301 0.10334,-0.48385 -0.52238,-0.57722 -0.55759,-1.00077 -0.10715,-1.28894 0.1819,-0.11637 0.33073,-0.44971 0.33073,-0.74075 0,-0.35376 0.20567,-0.55828 0.62049,-0.61701 0.49834,-0.0705 0.58747,-0.20078 0.45273,-0.66146 -0.50459,-1.72516 -0.44016,-2.16897 0.63484,-4.37268 0.91456,-1.8748 1.1386,-2.16196 1.47132,-1.88583 0.33395,0.27715 0.39249,0.19044 0.39249,-0.58133 0,-1.28877 1.0128,-4.12292 1.62712,-4.5532 1.212,-0.84892 3.62703,0.55512 6.80129,3.95409 2.07936,2.22655 2.76224,3.45284 3.30743,5.9393 0.2074,0.94588 0.8558,3.4626 1.4409,5.5927 0.58509,2.1301 1.2628,4.84856 1.50602,6.04103 0.24321,1.19247 0.91329,3.3 1.48905,4.68342 0.59143,1.42107 0.97997,2.72599 0.89312,2.99961 -0.10682,0.33657 0.0111,0.53661 0.38651,0.65577 0.29713,0.0943 0.54023,0.27814 0.54023,0.40853 0,0.40635 3.10809,3.5826 5.3751,5.49299 2.24801,1.89437 6.04709,4.55303 6.50605,4.55303 0.14486,0 0.36573,0.18289 0.49083,0.40642 0.54882,0.98069 8.54857,3.03367 11.81787,3.03281 0.73834,-1.9e-4 2.414,0.25424 3.72369,0.56539 2.19424,0.52131 2.47475,0.66408 3.57187,1.81797 4.171723,4.38759 5.392773,12.74278 3.421753,23.41387 -0.63781,3.45309 -0.90726,5.76175 -0.98002,8.39693 -0.092,3.3309 -0.0409,3.83911 0.61171,6.08541 0.39164,1.34805 0.91944,3.16537 1.17289,4.03849 l 0.46083,1.5875 -1.9467,0.0195 c -1.07069,0.0108 -1.947063,-0.0488 -1.947493,-0.1323 z m 11.889783,-3.07318 c -0.71811,-1.53398 -1.30988,-2.9925 -1.31504,-3.24115 -0.005,-0.24865 -0.17953,-0.74974 -0.38749,-1.11354 -0.50823,-0.88906 -0.51443,-5.26223 -0.011,-7.75022 0.21224,-1.04889 0.58215,-3.27629 0.82202,-4.94978 0.23988,-1.67349 0.47999,-3.11586 0.53358,-3.20526 0.2726,-0.45471 0.64576,-8.80082 0.40428,-9.0423 -0.14577,-0.14577 -0.20354,-0.57509 -0.12837,-0.95405 0.48433,-2.44189 -5.5079,-14.32016 -8.90529,-17.65273 -0.87307,-0.85642 -1.67476,-1.54012 -1.78153,-1.51934 -0.10678,0.0208 -0.63588,-0.18758 -1.175783,-0.46302 -0.53991,-0.27544 -1.37335,-0.50147 -1.85209,-0.50228 -1.05615,-0.002 -2.85481,-0.47616 -2.85481,-0.75291 0,-0.51958 1.64795,-2.70884 2.63789,-3.50437 1.28712,-1.03437 4.770453,-6.36781 4.770453,-7.30422 0,-0.89034 -0.63456,-2.29101 -1.33249,-2.94123 -0.66016,-0.61504 -2.521553,-0.99767 -3.438153,-0.70675 -0.32427,0.10292 -1.6573,1.15647 -2.96229,2.34123 -1.305,1.18475 -2.77786,2.42373 -3.27302,2.75327 -0.50985,0.33931 -0.9003,0.82225 -0.9003,1.11357 0,0.28292 -0.73299,1.38251 -1.62887,2.44354 -0.89587,1.06103 -1.98523,2.49469 -2.4208,3.18591 -0.43556,0.69122 -0.96811,1.25677 -1.18344,1.25677 -0.52586,0 -5.08564,-2.41634 -5.08564,-2.69501 0,-0.121 0.6333,-1.3203 1.40733,-2.6651 0.77404,-1.3448 2.04774,-3.67321 2.83046,-5.17423 1.60524,-3.07837 4.36952,-6.66741 6.04931,-7.8542 0.61792,-0.43656 2.26297,-1.84109 3.65567,-3.12117 1.3927,-1.28009 4.32244,-3.52334 6.510533,-4.98502 3.46723,-2.31614 4.08305,-2.63754 4.79326,-2.50159 0.56385,0.10794 0.69499,0.079 0.42569,-0.0938 -0.21407,-0.1374 -0.33001,-0.30903 -0.25765,-0.38139 0.13509,-0.13509 6.30022,-3.07221 6.44869,-3.07221 0.31942,0 0.72098,2.58968 0.57371,3.69988 -0.42558,3.20822 2.33086,4.92969 5.4085,3.37773 1.76887,-0.89199 2.12924,-1.80786 2.08158,-5.29024 -0.0478,-3.48933 -0.48322,-5.9349 -1.24804,-7.00899 -0.31847,-0.44726 -0.57904,-0.9848 -0.57904,-1.19455 0,-0.20975 -0.68461,-1.34882 -1.52135,-2.53125 -1.91832,-2.71085 -3.01324,-4.4427 -3.45347,-5.4624 -0.18954,-0.43902 -0.51696,-0.89467 -0.72761,-1.01255 -0.21064,-0.11789 -0.38299,-0.51676 -0.38299,-0.88638 0,-0.36963 -0.25192,-0.87604 -0.55983,-1.12537 -0.3079,-0.24933 -0.59496,-0.77342 -0.63791,-1.16465 -0.10645,-0.96972 -4.21102,-9.147568 -5.18334,-10.327161 l -0.7832,-0.950153 -1.77567,0.15827 c -2.14449,0.191142 -3.08635,0.6285 -3.770763,1.750977 -0.78719,1.291029 -0.68166,2.998194 0.30013,4.855079 0.450223,0.851522 1.239063,2.560253 1.752973,3.797178 1.32001,3.17709 2.92728,6.32149 4.8011,9.39271 l 1.61428,2.64583 -4.78442,2.31296 c -5.269373,2.54742 -10.552393,6.05585 -13.794013,9.16056 -0.98246,0.94097 -1.8487,1.64844 -1.92497,1.57217 -0.0763,-0.0763 -0.32186,-1.19729 -0.54574,-2.49115 -0.22388,-1.29385 -0.76402,-3.42311 -1.20032,-4.73168 -1.03741,-3.11148 -3.74315,-8.15766 -5.1059,-9.52246 -0.59315,-0.59404 -1.47421,-1.58071 -1.95792,-2.1926 -1.08407,-1.37136 -4.55325,-4.21437 -5.75559,-4.71673 -1.17321,-0.49021 -1.87291,-0.46106 -3.17978,0.13246 -1.25467,0.56981 -2.21083,1.93527 -2.41356,3.44673 -0.19215,1.43263 0.64248,2.7866 2.5984,4.2152 0.86914,0.63482 1.9301,1.58732 2.3577,2.11667 0.42759,0.52935 1.4508,1.79589 2.27378,2.81454 2.43562,3.01468 3.80841,6.49203 4.44151,11.25064 0.89591,6.73394 0.92951,6.46298 -1.25579,10.12824 -1.36009,2.2812 -2.92503,5.29163 -3.53452,6.79924 -0.24011,0.59394 -0.36342,0.36436 -1.20802,-2.24896 -0.51733,-1.60073 -1.37493,-4.69635 -1.90577,-6.87916 -1.5569,-6.40202 -3.03654,-11.27894 -3.86154,-12.72773 -0.84348,-1.48126 -3.9997,-5.12132 -5.66902,-6.53806 -0.58208,-0.49401 -1.85794,-1.49498 -2.83523,-2.22438 -0.9773,-0.72939 -1.70159,-1.40148 -1.60955,-1.49352 0.092,-0.0921 -0.15755,-0.16735 -0.55464,-0.16735 h -0.722 l 0.87634,-1.23392 c 1.39953,-1.97061 6.39918,-7.04801 9.03635,-9.176881 4.31617,-3.484247 12.06068,-8.302115 12.28131,-7.640214 0.0712,0.213554 0.38271,0.111155 0.94493,-0.310605 1.27778,-0.958541 3.2155,-1.848541 6.10086,-2.802144 2.3199,-0.76672 2.6429,-0.817107 2.85127,-0.444778 0.12924,0.230943 0.40974,0.352834 0.62334,0.270869 0.2136,-0.08196 0.31426,-0.268925 0.22369,-0.415467 -0.27925,-0.451835 0.50507,-0.738046 0.82469,-0.300942 0.23892,0.326737 0.41402,0.341132 0.98499,0.08098 0.38194,-0.174021 0.74995,-0.528726 0.81781,-0.788235 0.0957,-0.365989 0.4717,-0.498989 1.67608,-0.592885 0.85397,-0.06658 3.45768,-0.326359 5.78601,-0.577291 3.017113,-0.325163 5.183523,-0.407662 7.540633,-0.287153 7.01185,0.358485 8.29454,0.584268 17.33021,3.050535 2.41782,0.659939 3.55066,1.608447 2.3151,1.938396 -0.39213,0.104715 -0.37187,0.15292 0.13229,0.314842 0.32743,0.105157 0.59532,0.296372 0.59532,0.42492 0,0.370915 2.58009,0.280105 2.75607,-0.097 0.12347,-0.264584 0.18521,-0.264584 0.30868,0 0.0849,0.181901 0.41231,0.333344 0.72761,0.336539 0.63488,0.0064 2.39985,0.773018 3.21558,1.396627 0.50076,0.382819 0.50386,0.425932 0.0656,0.910241 -0.64324,0.710768 -0.22896,0.987084 0.48055,0.320526 l 0.58187,-0.546636 2.05263,1.213549 c 4.45423,2.633413 9.83614,7.263617 13.47983,11.597067 1.26605,1.50573 1.28137,1.54512 0.78384,2.01612 -0.27909,0.26422 -1.34088,0.68304 -2.35953,0.93073 -2.02904,0.49337 -3.4098,1.21457 -6.60807,3.45156 -1.82888,1.27918 -2.13225,1.41305 -2.27584,1.00423 -0.12536,-0.35693 -0.34024,-0.10281 -0.88311,1.04437 -0.3946,0.83384 -0.82603,1.58318 -0.95874,1.6652 -0.13272,0.082 -0.66864,1.04966 -1.19094,2.1503 -0.90592,1.90904 -0.9519,2.14301 -0.99876,5.08168 -0.0478,2.99619 -0.0256,3.12692 0.81078,4.77641 0.47294,0.93274 0.85989,1.88852 0.85989,2.12394 0,0.23542 0.18367,0.69026 0.40816,1.01075 0.22448,0.3205 0.58991,1.01774 0.81206,1.54942 0.36548,0.87472 0.36441,0.95153 -0.0113,0.80737 -0.54154,-0.20781 -0.52714,0.0556 0.0371,0.6791 0.29665,0.3278 0.4395,0.8934 0.41504,1.64333 -0.0381,1.1691 -1.83546,6.3134 -2.62885,7.52425 l -0.44025,0.67191 -1.62897,-1.75356 c -0.89594,-0.96445 -2.48669,-2.99558 -3.53501,-4.51361 -2.86687,-4.15139 -4.60659,-6.05031 -6.07585,-6.63185 -1.97601,-0.78212 -4.76213,-0.85427 -6.85676,-0.17756 -3.282,1.0603 -4.69671,2.02747 -6.46304,4.41847 -1.26304,1.7097 -3.13656,6.24502 -3.13656,7.59279 0,0.90855 0.86957,3.80811 2.49427,8.31698 1.49859,4.15894 4.51406,7.6328 7.63594,8.79671 0.90406,0.33705 1.78691,0.58559 1.9619,0.5523 0.17498,-0.0333 1.37987,0.34951 2.67754,0.85067 2.70014,1.0428 3.21726,1.11948 5.65639,0.83885 1.10251,-0.12685 2.45317,-0.0879 3.57187,0.10291 2.29644,0.39176 5.40165,1.37648 5.54866,1.75959 0.0623,0.16234 0.37745,0.24467 0.70034,0.18295 0.32289,-0.0617 1.29919,0.14851 2.16956,0.4672 1.35338,0.49554 1.97553,0.98173 4.29742,3.35833 2.7624,2.82748 3.30203,3.7204 2.69236,4.455 -0.29596,0.35662 -0.2533,0.38824 0.32724,0.24253 0.62617,-0.15716 0.69468,-0.071 1.10454,1.38978 0.54789,1.95268 0.55287,1.89852 -0.15835,1.72324 l -0.59531,-0.14673 0.56792,0.63452 c 0.92186,1.02995 1.08149,3.89048 0.35435,6.3499 -1.18804,4.01836 -2.14558,6.1489 -3.21005,7.1424 -0.56073,0.52335 -1.01951,1.08584 -1.01951,1.24998 0,0.16414 -0.32742,0.4685 -0.72761,0.67636 -0.40018,0.20787 -1.28653,0.88126 -1.96966,1.49642 -1.29352,1.16482 -1.56675,1.34449 -3.84186,2.52633 -0.75886,0.39421 -2.06855,1.30468 -2.91041,2.02329 -0.87667,0.7483 -2.79663,1.9189 -4.49362,2.73975 -2.91486,1.40995 -3.70572,1.68424 -3.39186,1.17641 0.0873,-0.14123 -0.64983,0.0508 -1.63804,0.42666 -0.9882,0.3759 -2.15392,0.80882 -2.59048,0.96205 -0.43656,0.15323 -1.06164,0.45117 -1.38906,0.6621 -0.32743,0.21093 -0.59532,0.28753 -0.59532,0.17022 0,-0.11731 -0.14882,-0.0213 -0.33073,0.2134 -0.20866,0.26921 -1.72682,0.72729 -4.11351,1.24119 -2.08054,0.44798 -3.904,0.8145 -4.05215,0.8145 -0.14816,0 -0.85692,-1.25507 -1.57503,-2.78905 z m 23.01051,-11.24052 c 1.03267,-0.47598 1.87758,-0.96788 1.87758,-1.0931 0,-0.12522 0.94684,-1.28369 2.10409,-2.5744 2.54084,-2.83383 3.25727,-4.12939 3.40381,-6.15526 0.25084,-3.46777 -1.31866,-7.25099 -4.06192,-9.79111 -2.45024,-2.2688 -3.67046,-2.73683 -7.13452,-2.73655 -2.63451,2.1e-4 -2.6549,0.005 -4.7625,1.17229 -4.75291,2.63187 -6.62834,5.1831 -7.40421,10.07229 -0.52217,3.29054 -0.51122,3.61362 0.12817,3.78083 0.3608,0.0943 0.52916,0.36089 0.52916,0.83775 0,1.1324 0.63874,2.0599 2.84953,4.13774 1.4597,1.37192 2.48877,2.10377 3.43261,2.44119 3.40955,1.21892 6.25751,1.19004 9.0382,-0.0917 z m -6.21833,-7.63902 c -0.94539,-0.57648 -1.80641,-2.42787 -1.53296,-3.29622 0.0983,-0.31211 0.50883,-0.96916 0.91232,-1.4601 1.64024,-1.99573 3.35034,-2.43329 4.52543,-1.1579 1.79624,1.94957 1.94571,2.87357 0.73513,4.54472 -1.28496,1.77384 -3.09887,2.30922 -4.63992,1.3695 z m -5.46832,-95.965076 c -0.32648,-0.326475 -0.98254,0.129238 -0.81492,0.566054 0.14831,0.386486 0.20337,0.388048 0.5751,0.01632 0.2261,-0.226101 0.33402,-0.488167 0.23982,-0.582369 z M 77.840927,201.80939 c -0.0828,-0.21582 -0.33629,-0.39241 -0.56325,-0.39241 -0.22697,0 -0.33181,-0.0809 -0.23298,-0.17969 0.27565,-0.27565 -3.02795,-2.09361 -4.12928,-2.27233 -1.00172,-0.16256 -3.37055,-1.60935 -3.37055,-2.05861 0,-0.13853 -0.16747,-0.25187 -0.37215,-0.25187 -0.70147,0 -4.78745,-3.30164 -7.74739,-6.26021 -2.98903,-2.98764 -4.40891,-4.81714 -4.47662,-5.7681 -0.0203,-0.28541 -0.30158,-0.70213 -0.62502,-0.92604 -1.70359,-1.17936 -2.53178,-2.30065 -4.878,-6.60436 -1.38219,-2.53536 -2.46245,-4.69166 -2.40058,-4.79177 0.18958,-0.30674 3.04842,-1.00636 5.38369,-1.3175 3.32666,-0.44322 8.521,0.006 9.39755,0.81236 0.12904,0.11873 0.78812,0.15032 1.46463,0.0702 1.03709,-0.12283 1.66432,0.0315 3.99873,0.98412 1.52279,0.62138 3.40784,1.48768 4.18901,1.92511 1.92544,1.07817 4.40796,3.41955 5.63905,5.31846 0.91631,1.41337 0.97968,1.61993 0.64937,2.11666 -0.33456,0.50313 -0.2852,0.6204 0.57418,1.36397 0.91064,0.78793 0.94579,0.88776 1.11781,3.175 0.13135,1.74648 0.0841,2.56234 -0.18128,3.13274 -0.31181,0.67008 -0.30315,0.83286 0.066,1.24076 0.31036,0.34295 0.38571,0.77691 0.27953,1.60999 -0.0799,0.62727 -0.15142,1.35588 -0.15881,1.61913 -0.007,0.26325 -0.10988,0.41904 -0.22773,0.3462 -0.11786,-0.0728 -0.22295,0.44155 -0.23353,1.14309 -0.0241,1.59677 -0.44982,2.9354 -1.49695,4.70685 -0.87359,1.47786 -1.42213,1.8923 -1.66544,1.25826 z M 157.6345,174.62792 c -0.97123,-3.62102 -2.77659,-7.10677 -5.04709,-9.74481 -1.99826,-2.32175 -5.49308,-5.13468 -7.58106,-6.10189 -0.91552,-0.4241 -1.60148,-0.87318 -1.52435,-0.99797 0.0771,-0.12478 -0.51702,-0.309 -1.32032,-0.40936 -0.80329,-0.10037 -1.6021,-0.33403 -1.77513,-0.51926 -0.17302,-0.18522 -0.526,-0.28148 -0.78439,-0.21391 -0.25839,0.0676 -1.393,-0.008 -2.52136,-0.16887 -1.12835,-0.16045 -2.94452,-0.36752 -4.03592,-0.46017 -2.36371,-0.20064 -3.03329,-0.40351 -7.62658,-2.31074 -3.50814,-1.45665 -5.33801,-2.54592 -5.33801,-3.17759 0,-0.18221 -0.34428,-0.80123 -0.76508,-1.3756 -0.84792,-1.15739 -1.34921,-2.67778 -1.34752,-4.08702 0.002,-1.52743 1.97354,-5.29167 2.77178,-5.29167 0.72301,0 1.9044,1.33076 3.31717,3.73656 2.53593,4.31843 6.63298,8.13608 9.89734,9.22239 1.50158,0.4997 1.9287,0.53572 3.60227,0.3038 2.59273,-0.3593 4.2511,-1.47719 6.08243,-4.10011 0.75821,-1.08595 1.5997,-2.03229 1.86997,-2.10296 0.41763,-0.10922 0.45176,-0.24225 0.22732,-0.88609 -0.21597,-0.61952 -0.11319,-1.16668 0.56397,-3.00256 0.68589,-1.85952 0.85213,-2.76027 0.96824,-5.24609 0.19535,-4.18242 -0.18673,-6.04161 -1.9472,-9.47519 -0.7855,-1.53202 -1.42819,-3.09423 -1.42819,-3.47158 0,-1.13491 1.03471,-2.91505 2.29434,-3.94721 0.93505,-0.76621 1.23401,-0.8946 1.41212,-0.60642 0.16862,0.27284 0.27183,0.18273 0.40684,-0.35521 0.19315,-0.76958 1.00757,-1.37278 1.46868,-1.0878 0.15366,0.095 0.51303,-0.0781 0.79859,-0.38464 0.54893,-0.5892 2.00682,-0.8066 1.66144,-0.24776 -0.13518,0.21873 -0.0427,0.24756 0.31511,0.0983 1.13008,-0.47147 1.65333,-0.38487 3.6338,0.60141 1.9127,0.95252 2.11777,1.13557 2.71402,2.42252 0.52608,1.13549 0.71344,1.33534 1.01626,1.08402 0.27109,-0.22498 0.42048,-0.22851 0.55362,-0.0131 0.10028,0.16227 0.10979,0.36758 0.0211,0.45624 -0.0887,0.0887 0.0629,0.40816 0.33686,0.71 0.27393,0.30184 0.88782,1.73942 1.36419,3.19463 0.47637,1.45521 0.9284,2.81419 1.00453,3.01997 0.0857,0.23156 0.0242,0.30357 -0.16118,0.18898 -0.16476,-0.10183 -0.0234,0.30106 0.31414,0.89531 0.59054,1.03967 0.66597,1.73013 0.31116,2.84806 -0.11743,0.36997 -0.0262,0.55925 0.31236,0.64778 0.36781,0.0962 0.5577,0.59775 0.82215,2.1716 0.31221,1.85807 0.30204,2.09276 -0.11049,2.5486 -0.37805,0.41774 -0.39654,0.57175 -0.11006,0.91693 0.21754,0.26212 0.36869,1.34657 0.41052,2.94543 0.0364,1.39181 0.18277,2.64711 0.32521,2.78955 0.26638,0.26638 0.23989,0.77872 -0.24847,4.80608 -0.21621,1.78301 -0.20828,2.48964 0.033,2.94047 0.74516,1.39235 -2.66567,15.33976 -3.94463,16.1302 -0.15756,0.0974 -0.28648,0.45163 -0.28648,0.78722 0,0.33559 -0.23251,0.90575 -0.51669,1.26703 -0.28418,0.36127 -0.57075,0.94287 -0.63683,1.29245 -0.0661,0.34957 -0.30908,0.99278 -0.54001,1.42934 -0.23093,0.43656 -0.42061,0.94258 -0.4215,1.12448 -0.004,0.7635 -0.53312,0.24605 -0.81201,-0.79375 z m -8.08492,-74.665973 c -0.2,-0.521215 0.0956,-0.938712 0.66473,-0.938712 0.72543,0 0.8662,0.306624 0.38493,0.838425 -0.52875,0.58425 -0.85208,0.61515 -1.04966,0.100287 z m -4.6646,-4.928655 c -0.62169,-0.362103 -0.58655,-0.772557 0.0661,-0.772557 0.35277,0 0.52916,0.176389 0.52916,0.529167 0,0.606912 0.0169,0.59999 -0.59531,0.24339 z M 45.732367,198.25028 c 0,-0.14095 -0.17859,-0.18774 -0.39687,-0.10398 -0.21828,0.0838 -0.39688,0.19909 -0.39688,0.25628 0,0.0572 0.1786,0.10398 0.39688,0.10398 0.21828,0 0.39687,-0.11532 0.39687,-0.25628 z m -9.42931,-62.05309 c 0.0838,-0.21828 0.037,-0.39688 -0.10399,-0.39688 -0.14095,0 -0.25628,0.1786 -0.25628,0.39688 0,0.21828 0.0468,0.39687 0.10399,0.39687 0.0572,0 0.17251,-0.17859 0.25628,-0.39687 z"
       id="path22" /></g></svg>
