<?xml version="1.0" encoding="UTF-8" standalone="no"?>
<!-- Created with Inkscape (http://www.inkscape.org/) -->

<svg
   xmlns:dc="http://purl.org/dc/elements/1.1/"
   xmlns:cc="http://creativecommons.org/ns#"
   xmlns:rdf="http://www.w3.org/1999/02/22-rdf-syntax-ns#"
   xmlns:svg="http://www.w3.org/2000/svg"
   xmlns="http://www.w3.org/2000/svg"
   xmlns:sodipodi="http://sodipodi.sourceforge.net/DTD/sodipodi-0.dtd"
   xmlns:inkscape="http://www.inkscape.org/namespaces/inkscape"
   id="svg4136"
   version="1.1"
   inkscape:version="0.91 r13725"
   width="646.25"
   height="876.875"
   viewBox="0 0 646.25 876.875"
   sodipodi:docname="new_drominad.JPG">
  <metadata
     id="metadata4142">
    <rdf:RDF>
      <cc:Work
         rdf:about="">
        <dc:format>image/svg+xml</dc:format>
        <dc:type
           rdf:resource="http://purl.org/dc/dcmitype/StillImage" />
        <dc:title></dc:title>
      </cc:Work>
    </rdf:RDF>
  </metadata>
  <defs
     id="defs4140" />
  <sodipodi:namedview
     pagecolor="#ffffff"
     bordercolor="#666666"
     borderopacity="1"
     objecttolerance="10"
     gridtolerance="10"
     guidetolerance="10"
     inkscape:pageopacity="0"
     inkscape:pageshadow="2"
     inkscape:window-width="1280"
     inkscape:window-height="657"
     id="namedview4138"
     showgrid="false"
     inkscape:zoom="0.55652174"
     inkscape:cx="504.61356"
     inkscape:cy="456.4728"
     inkscape:window-x="-8"
     inkscape:window-y="-8"
     inkscape:window-maximized="1"
     inkscape:current-layer="svg4136" />
  <path
     style="fill:#000000"
     d="m 43.51541,845.88288 c -21.07657,-1.11632 -28.82723,-2.5335 -33.09469,-6.05107 -1.86701,-1.539 -2.25113,-2.23762 -2.09567,-3.8115 0.17742,-1.79606 0.46662,-2.00531 4.25286,-3.07718 75.592875,-21.39938 142.40889,-59.98832 197.71036,-114.18575 69.30588,-67.92219 115.71355,-157.37375 125.99125,-242.85019 4.47892,-37.24975 0.96898,-73.80234 -9.70648,-101.08347 -15.27527,-39.03596 -43.01203,-63.07682 -82.12013,-71.1777 -9.37453,-1.94186 -23.30175,-2.08173 -30.9375,-0.31073 -6.75647,1.56707 -14.58583,4.38191 -20.625,7.41519 -21.01379,10.55454 -44.18715,33.21067 -62.46436,61.07017 -4.70557,7.17258 -10.34814,16.54166 -10.34814,17.18235 0,0.25458 1.41378,-0.89203 3.14172,-2.54804 11.78558,-11.29487 32.12979,-21.0615 56.54578,-27.14586 10.94558,-2.7276 12.43281,-3.05243 12.70937,-2.77587 0.13734,0.13733 -2.01331,2.72453 -4.77922,5.74934 -31.43856,34.38114 -57.34642,93.96413 -74.40836,171.12462 -4.80221,21.71746 -10.19728,53.29 -12.01165,70.2936 l -0.76493,7.16859 -3.544715,-3.85401 c -9.22995,-10.03536 -21.85843,-30.79319 -30.52241,-50.17068 -16.559235,-37.03572 -27.227115,-78.26227 -31.698365,-122.5 -1.38052,-13.65856 -1.88364,-43.92564 -0.9662,-58.125 2.87019,-44.42234 13.04079,-83.08908 31.317275,-119.0625 14.18237,-27.91499 29.38465,-48.58076 51.953585,-70.625 47.74588,-46.63585 110.02218,-76.63655 196.66704,-94.741454 21.33922,-4.458944 37.83882,-10.996181 54.70095,-21.672837 9.76614,-6.183663 16.77665,-11.889853 24.85931,-20.234196 l 6.63668,-6.851549 0.70707,2.808025 c 1.09752,4.358635 0.84527,14.94822 -0.50033,21.004501 -3.24047,14.584731 -10.94737,29.021012 -23.7648,44.51535 -2.76529,3.34282 -5.0278,6.18855 -5.0278,6.32385 0,0.1353 3.77266,-0.41378 8.38369,-1.22017 56.3299,-9.85119 113.47782,-32.123555 156.93013,-61.160679 13.57174,-9.069348 25.23112,-18.218629 38.27993,-30.038798 l 3.90625,-3.538449 -5.3e-4,4.590698 c -10e-4,9.725343 -2.57393,30.852553 -5.63113,46.24106 -5.46867,27.526698 -13.3833,51.300528 -24.7312,74.287138 -12.094,24.49797 -25.05336,42.91413 -42.44755,60.32096 -13.90043,13.91052 -29.42012,25.53929 -47.50209,35.59289 l -7.5,4.17002 5,-0.40074 c 13.65496,-1.09439 34.42478,-4.09017 50.3125,-7.25693 56.30729,-11.22322 100.61635,-30.91185 127.64188,-56.71736 1.62487,-1.55154 3.07862,-2.69666 3.23056,-2.54473 0.90962,0.90965 -3.915,21.69354 -7.53531,32.4609 -18.12904,53.91903 -55.7243,106.02525 -108.02463,149.71986 -21.33309,17.82285 -49.26954,37.47475 -70.46875,49.57125 -1.97656,1.12785 -3.59375,2.211 -3.59375,2.40701 0,0.55773 36.32305,-0.29558 44.6875,-1.04981 45.87617,-4.13672 87.10127,-14.47339 115.87523,-29.05426 1.73015,-0.87672 3.2619,-1.59405 3.40391,-1.59405 0.5698,0 -1.65521,9.87016 -3.43325,15.22987 -8.38821,25.28549 -25.54672,54.58173 -49.64898,84.77013 -37.23808,46.64116 -90.46707,95.7214 -157.58192,145.29975 -8.135,6.00944 -9.93283,7.6 -9.11045,8.06019 1.48038,0.8285 29.56565,0.006 39.24546,-1.14963 16.61864,-1.98356 34.1634,-5.714 48.56424,-10.32589 4.20379,-1.34626 7.71982,-2.37119 7.8134,-2.27761 0.0936,0.0936 -2.26478,3.525 -5.2408,7.62544 -26.74803,36.85362 -65.82488,77.15069 -104.67146,107.93988 -83.35296,66.06431 -176.12058,102.82637 -273.96538,108.56737 -13.920455,0.81675 -41.222525,0.66831 -60,-0.32631 z"
     id="path4150"
     inkscape:connector-curvature="0" />
</svg>
